<?xml version="1.0" encoding="utf-8"?>
<!-- Generator: Adobe Illustrator 25.2.1, SVG Export Plug-In . SVG Version: 6.00 Build 0)  -->
<svg version="1.1" xmlns="http://www.w3.org/2000/svg" xmlns:xlink="http://www.w3.org/1999/xlink" x="0px" y="0px"
	 viewBox="0 0 100 100" style="enable-background:new 0 0 100 100;" xml:space="preserve">
<style type="text/css">
	.st0{fill:#DB714B;}
	.st1{fill:#FFFFFF;}
	.st2{fill:#B5B6B6;}
	.st3{fill:#5DB5DE;}
	.st4{fill:#519241;}
	.st5{fill:#F4D151;}
</style>
<g id="Layer_1">
	<g id="Layer_3">
		<polygon class="st0" points="36.1,29.5 30.5,42.3 79.1,89.5 83.1,91 87.2,89.9 90.1,86.6 90.7,82.4 89.2,78.9 51.1,44.2 
			42.1,35.6 39.1,31.1 37.5,28.5 		"/>
		<polygon class="st1" points="82,80.8 80.1,82.1 80.3,84.8 82.9,85.5 84.8,84.1 84.9,82.2 83.7,80.9 		"/>
	</g>
	<g id="Layer_2_1_">
		<g>
			<g>
				<path d="M80.4,85.3c-1.2-1.2-1.2-3.2,0-4.4c1.2-1.2,3.2-1.2,4.4,0c1.2,1.2,1.2,3.2,0,4.4C83.7,86.5,81.6,86.6,80.4,85.3z
					 M83.8,81.9c-0.7-0.7-1.8-0.7-2.5,0s-0.7,1.8,0,2.5s1.8,0.7,2.5,0S84.5,82.6,83.8,81.9z"/>
			</g>
			<path d="M89.2,78.1L89.2,78.1L55.3,47.2c0,0-0.6-0.6-1.6-1.4c-5.5-5-8.3-7.5-10.4-10c-2-2.3-3.7-5-5.2-7.9l-0.4-0.8L37,27.8
				c-1.4-4.3-2.9-8.6-4.3-12.9c-0.4-1.1-0.9-2-1.5-2.8c-1.4-1.8-4.3-4.6-8.7-5.7c-6.1-1.4-10.9,0.9-12,1.4L10,9.4l10.1,3.7l0.8,7.5
				L17,23.5L6.2,19.3c-0.3,0.6-0.6,1.3-0.9,2c0.4,1.9,1.4,4.6,3.5,7.6c2.4,3.3,5.1,5.2,6.7,6.2l-1.9,5.4l2.8-0.3l-0.3,1.3l3,0.5
				l0.8-2.4l4.5-0.4l5.6,2.2l-0.6,1.2l0.5,0.4c2.8,2.1,5.5,4.4,8.1,6.8c2.2,2,6.8,7.2,7.2,7.5l33.1,32.4l0.1,0.1
				c3.2,2.5,7.8,2.1,10.6-0.8C91.8,86.1,91.9,81.2,89.2,78.1z M17.2,40.8v-0.4l1.6-0.2L18.5,41L17.2,40.8z M23.8,34l-0.4-1.3
				c-0.1-0.1-0.1-0.3,0.1-0.3l0.9-0.4c0.1-0.1,0.2-0.2,0.1-0.3l-0.4-1c-0.1-0.1,0-0.2,0.1-0.3l1.1-0.5c0.1-0.1,0.2-0.2,0.1-0.3
				L24.7,29c-0.1-0.1,0-0.2,0.1-0.3l1.1-0.5c0.1-0.1,0.2-0.2,0.1-0.3l-0.4-0.7c-0.1-0.1,0-0.2,0.1-0.3l1-0.4l4.3,1.9l0.6,1.5
				c0.1,0.1,0.1,0.3-0.1,0.3l-0.9,0.4c-0.1,0.1-0.2,0.2-0.1,0.3l0.5,0.9c0.1,0.1,0,0.2-0.1,0.3L30,32.4c-0.1,0.1-0.2,0.2-0.1,0.3
				l0.4,0.8c0.1,0.1,0,0.2-0.1,0.3l-1,0.4c-0.1,0.1-0.2,0.2-0.1,0.3l0.4,0.6c0.1,0.1,0,0.2-0.1,0.3l-1.2,0.4L23.8,34z M79.2,88.6
				L46.1,56.2c-0.4-0.4-5-5.5-7.2-7.5c-2.5-2.3-5.1-4.5-7.7-6.7l6.1-12.5c1.3,2.6,3,5,4.8,7.1c2.2,2.6,5,5.1,10.5,10.1
				c0.9,0.9,1.6,1.4,1.6,1.4l34,31c2.2,2.6,2.2,6.5-0.2,8.9S82,90.6,79.2,88.6z"/>
		</g>
	</g>
	<g id="Layer_4">
		<polygon class="st2" points="45.6,50.5 78.4,18 80.7,12.9 90.1,6.7 93,9.8 86.3,19.2 81.6,21.5 49.2,54.5 		"/>
		<polygon class="st3" points="43.2,48.6 51.2,56.6 51.4,58.4 50.1,59.8 48.4,59.6 40.8,51.9 40.1,50 40.8,48.7 		"/>
		<polygon class="st4" points="40.8,51.9 39.4,56.6 35.2,60 29.9,61.1 27.5,62.6 28.2,64.8 27.5,68.2 14.3,81 12,81.4 9.8,80.1 
			7,84.3 7.7,89.8 11.2,93 15.9,93.1 20,90.4 18.7,87.4 19.8,84.3 33.4,72 37.6,72.7 39.1,69.6 40.3,64.1 43.5,60.2 47.7,58.8 		"/>
		<polygon class="st5" points="36.7,72.2 33.4,72 18.9,86.1 19.3,89.5 37.6,72.7 		"/>
		<polygon class="st5" points="27.7,63.3 27.9,66.7 13.7,81.1 10.3,80.7 27.1,62.4 		"/>
	</g>
	<path d="M93.5,9.3l-3.1-3.1c-0.3-0.3-0.7-0.3-1-0.1l-9.3,6.5c-0.1,0.1-0.2,0.2-0.2,0.3l-2.4,4.6l-32,32.1l-1.4-1.4
		c-0.5-0.5-1.1-0.8-1.9-0.8c-0.7,0-1.4,0.3-1.9,0.8L40,48.6c-0.5,0.5-0.8,1.1-0.8,1.9c0,0.7,0.2,1.3,0.7,1.7
		c-0.2,4.1-3.6,7.4-7.7,7.4h-0.1c-1.9,0.2-3.7,1-5.1,2.3L8.6,80.4c-1.5,1.5-2.4,3.6-2.4,5.7s0.8,4.2,2.4,5.7
		c1.5,1.5,3.4,2.2,5.3,2.2c2.1,0,4.1-0.8,5.8-2.5l18.4-18.4c1.4-1.4,2.2-3.2,2.3-5.1v-0.1c0-4.3,3.1-7.9,7.1-8.1
		c0.5,0.4,1.1,0.7,1.7,0.7c0.7,0,1.4-0.3,1.9-0.8l0.4-0.4c1-1,1-2.7,0-3.7l-1.4-1.4l32.1-32.1l4.6-2.4c0.1-0.1,0.2-0.1,0.3-0.2
		l6.5-9.3C93.8,10,93.8,9.6,93.5,9.3z M27.6,65.5c0,0.8-0.3,1.6-0.9,2.2l-11.9,12c-0.6,0.6-1.4,0.9-2.2,0.9c-0.6,0-1.1-0.2-1.6-0.5
		l16.2-16.2C27.5,64.4,27.6,65,27.6,65.5z M20.4,85.3l11.9-11.9c1-1,2.6-1.2,3.8-0.5L19.9,89.1C19.2,87.9,19.4,86.3,20.4,85.3z
		 M38.9,67.8c-0.1,1.5-0.7,2.9-1.7,4c-1.8-1.3-4.3-1.1-5.9,0.5l-11.9,12c-1.6,1.6-1.8,4.1-0.5,5.9l-0.2,0.2c-2.7,2.7-6.5,2.8-9,0.3
		c-1.2-1.2-1.9-2.9-1.9-4.6s0.7-3.4,1.9-4.6l0.2-0.2c0.8,0.6,1.7,0.9,2.7,0.9c1.2,0,2.4-0.5,3.3-1.4l11.9-11.9
		c0.9-0.9,1.4-2,1.4-3.3c0-1-0.3-1.9-0.9-2.7c1.1-1,2.5-1.6,4-1.7l0,0c4.5,0,8.2-3.3,9-7.6l4.9,4.9C42.1,59.3,39,63.2,38.9,67.8z
		 M50.5,58.3L50,58.7c-0.2,0.2-0.5,0.3-0.8,0.3s-0.6-0.1-0.8-0.3L41,51.3c-0.2-0.2-0.3-0.5-0.3-0.8s0.1-0.6,0.3-0.8l0.4-0.4
		c0.2-0.2,0.5-0.3,0.8-0.3s0.6,0.1,0.8,0.3l7.4,7.4C50.9,57.1,50.9,57.8,50.5,58.3z M86,18.5l-4.5,2.3c-0.1,0-0.1,0.1-0.2,0.1
		L49.1,53.2l-2.5-2.5l32.2-32.2c0.1-0.1,0.1-0.1,0.1-0.2l2.3-4.5l8.6-6.1L92,10L86,18.5z"/>
	<rect x="21" y="25.1" width="11.6" height="12.2"/>
</g>
<g id="Figs">
</g>
<g id="Text">
</g>
</svg>
