<?xml version="1.0" standalone="yes"?><!DOCTYPE svg PUBLIC "-//W3C//DTD SVG 1.1//EN" "http://www.w3.org/Graphics/SVG/1.1/DTD/svg11.dtd"[
<!ENTITY E3 'stroke:none;opacity:1;fill:rgb(68,154,223);'><!ENTITY E10 'matrix(1.00 0.00 0.00 1.00 0.00 0.00 ) '><!ENTITY E5 'stroke:none;fill-rule:evenodd;opacity:1;fill:rgb(255,255,255);'><!ENTITY E7 'M 5.5001 19.484 10.6493 19.484 16.2743 10.2485 19.3728 10.2485 M 14.6769 17.1481 16.3089 19.4828 19.2202 19.4828 M 5.500199 10.2437 10.7586 10.2437 12.1652 12.8707 '><!ENTITY E14 'stroke:rgb(169,169,169);fill:none;stroke-linecap:butt;stroke-miterlimit:9;opacity:1;stroke-width:2;stroke-linejoin:miter;'><!ENTITY E4 'M 19.156 13.888 19.156 10.3647 19.156 6.841399 25.2585 10.3647 22.2072 12.1264 z '><!ENTITY E6 'M 19.156 22.97 19.156 19.4467 19.156 15.9234 25.2585 19.4467 22.2072 21.2084 z '><!ENTITY E8 'stroke:rgb(255,255,255);fill:none;stroke-linecap:butt;stroke-miterlimit:9;opacity:1;stroke-width:2;stroke-linejoin:miter;'><!ENTITY E1 'stroke:rgb(169,169,169);fill:none;stroke-linecap:butt;stroke-miterlimit:9;opacity:1;stroke-width:1;stroke-linejoin:miter;'><!ENTITY E20 'matrix(1.00 0.00 0.00 1.00 4.00 4.00 ) '><!ENTITY E15 'stroke:none;opacity:1;fill:rgb(255,255,255);'><!ENTITY E2 'matrix(1.00 0.00 0.00 1.00 164.00 4.00 ) '><!ENTITY E17 'matrix(1.00 0.00 0.00 1.00 84.00 84.00 ) '><!ENTITY E23 'stroke:rgb(255,255,255);fill:none;stroke-linecap:butt;stroke-miterlimit:9;opacity:1;stroke-width:0.878745;stroke-linejoin:miter;'><!ENTITY E11 'matrix(1.00 0.00 0.00 1.00 164.00 84.00 ) '><!ENTITY E25 'stroke:rgb(255,255,255);fill:none;stroke-linecap:butt;stroke-miterlimit:9;opacity:1;stroke-width:0.866585;stroke-linejoin:miter;'>
]><svg width="230.9875" height="132.8252" id="SvgGdi_output" xmlns="http://www.w3.org/2000/svg" xmlns:xlink="http://www.w3.org/1999/xlink"><rect id="background" height="100.00%" style="fill:rgb(255,255,255);" width="100.00%" y="0.00" x="0.00" /><g style="shape-rendering:auto;" id="root_group"><line y1="19.00" style="&E1;" id="66" x2="160.00" y2="19.00" x1="118.00" /><line y1="99.00" style="&E1;" id="67" x2="160.00" y2="99.00" x1="118.00" /><line y1="19.00" style="&E1;" id="68" x2="80.00" y2="19.00" x1="38.00" /><line y1="19.00" style="&E1;" id="69" x2="80.00" y2="99.00" x1="38.00" /><ellipse id="70" cy="15.00" cx="15.00" transform="&E2;" rx="15.00" ry="15.00" style="&E3;" /><path d="&E4;" style="&E5;" transform="&E2;" id="71" /><path d="&E6;" style="&E5;" transform="&E2;" id="72" /><path d="&E7;" style="&E8;" transform="&E2;" id="73" /><text id="74" transform="&E10;" x="164.00px" y="39.00px" style="stroke:none;clip-path:url(#76_text_clipper);font-family:Microsoft Sans Serif;fill:rgb(0,0,0);font-size:8.25pt;opacity:1;"><tspan dy="8.25pt" id="78">Image</tspan></text><ellipse id="80" cy="15.00" cx="15.00" transform="&E11;" rx="15.00" ry="15.00" style="stroke:none;opacity:1;fill:rgb(238,192,75);" /><path style="&E14;" transform="&E11;" id="81" d="M 1.5363 7.8 C 1.99103 6.9385 2.52798 6.1205 3.1403 5.3587 3.7527 4.5967 4.4403 3.8909 5.1968 3.254 5.95315 2.617 6.7782 2.049 7.665299 1.5627 M 0.4537992 19.4997 C 0.1435492 18.4956 -0.05714077 17.4835 -0.1564507 16.4769 -0.2551987 15.4701 -0.2516447 14.4684 -0.1525816 13.4844 -0.05334165 12.5007 0.1414284 11.5347 0.4251484 10.5993 M 7.892348 28.3993 C 7.030958 27.9447 6.212848 27.4077 5.450948 26.7954 4.689008 26.1831 3.983248 25.4954 3.346348 24.739 2.709558 23.9826 2.141548 23.1575 1.655148 22.2704 M 19.49415 29.4993 C 18.48995 29.8096 17.47785 30.0103 16.47125 30.1096 15.46445 30.2084 14.46285 30.2049 13.47895 30.1018 12.49507 30.0028 11.52915 29.8079 10.59365 29.5242 M 28.46365 22.0993 C 28.00892 22.9606 27.472 23.7788 26.85965 24.5407 26.24738 25.3026 25.55945 26.0084 24.80315 26.6453 24.0468 27.2822 23.22175 27.8502 22.33465 28.3365 M 29.54565 10.4995 C 29.85594 11.5037 30.05659 12.5157 30.15594 13.5224 30.25481 14.5292 30.25114 15.531 30.15199 16.5147 30.05279 17.4986 29.85802 18.4646 29.5743 19.4 M 22.10769 1.499998 C 22.96908 1.954698 23.7872 2.491698 24.5491 3.103898 25.31104 3.716298 26.0168 4.404098 26.65369 5.160398 27.29052 5.916898 27.85859 6.741898 28.34499 7.629098 M 10.50499 0.3999977 C 11.50919 0.08969772 12.52109 -0.1109023 13.52779 -0.2103023 14.53469 -0.3090023 15.53619 -0.3055023 16.52009 -0.2103023 17.50401 -0.1111023 18.46999 0.08369771 19.40549 0.3673977 " /><ellipse id="82" cy="9.06" cx="15.01" transform="&E11;" rx="3.50" ry="3.50" style="&E15;" /><ellipse id="83" cy="18.49" cx="9.12" transform="&E11;" rx="3.50" ry="3.50" style="&E15;" /><ellipse id="84" cy="18.46" cx="20.88" transform="&E11;" rx="3.50" ry="3.50" style="&E15;" /><text id="85" transform="&E10;" x="164.00px" y="119.00px" style="stroke:none;clip-path:url(#87_text_clipper);font-family:Microsoft Sans Serif;fill:rgb(0,0,0);font-size:8.25pt;opacity:1;"><tspan dy="8.25pt" id="89">Commutator</tspan></text><line y1="19.00" style="&E1;" id="91" x2="118.00" y2="19.00" x1="80.00" /><ellipse id="92" cy="15.00" cx="15.00" transform="&E17;" rx="15.00" ry="15.00" style="&E3;" /><path d="&E4;" style="&E5;" transform="&E17;" id="93" /><path d="&E6;" style="&E5;" transform="&E17;" id="94" /><path d="&E7;" style="&E8;" transform="&E17;" id="95" /><text id="96" transform="&E10;" x="84.00px" y="119.00px" style="stroke:none;clip-path:url(#98_text_clipper);font-family:Microsoft Sans Serif;fill:rgb(0,0,0);font-size:8.25pt;opacity:1;"><tspan dy="8.25pt" id="100">Quaternion</tspan></text><path style="&E14;" transform="&E20;" id="102" d="M 31.179 5.2 C 34.9985 11.0918 34.9814 18.682 31.13552 24.557 " /><ellipse id="103" cy="15.00" cx="15.00" transform="&E20;" rx="15.00" ry="15.00" style="stroke:none;opacity:1;fill:rgb(91,178,126);" /><rect id="104" height="13.14" style="&E15;" transform="&E20;" width="10.75" y="4.57" x="9.66" /><rect id="105" height="3.64" style="&E15;" transform="&E20;" width="6.62" y="16.68" x="11.72" /><path style="&E23;" transform="&E20;" id="106" d="M 12.54858 21.20126 10.19729 25.84716 " /><path style="&E25;" transform="&E20;" id="107" d="M 14.15625 21.12463 13.13978 25.92379 " /><path style="&E23;" transform="&E20;" id="108" d="M 17.40598 21.20126 19.75727 25.84716 " /><path style="&E25;" transform="&E20;" id="109" d="M 15.79831 21.07344 16.48332 25.97498 " /><text id="110" transform="&E10;" x="4.00px" y="39.00px" style="stroke:none;clip-path:url(#112_text_clipper);font-family:Microsoft Sans Serif;fill:rgb(0,0,0);font-size:8.25pt;opacity:1;"><tspan dy="8.25pt" id="114">UCLA</tspan></text><text id="116" transform="&E10;" x="4.00px" y="51.45px" style="stroke:none;clip-path:url(#118_text_clipper);font-family:Microsoft Sans Serif;fill:rgb(0,0,0);font-size:8.25pt;opacity:1;"><tspan dy="8.25pt" id="120">MiniscopeV4</tspan></text></g><defs id="clips_hatches_and_gradients"><clipPath id="76_text_clipper"><rect x="164.00" y="39.00" width="35.15" height="13.83" id="77" /></clipPath><clipPath id="87_text_clipper"><rect x="164.00" y="119.00" width="65.99" height="13.83" id="88" /></clipPath><clipPath id="98_text_clipper"><rect x="84.00" y="119.00" width="59.78" height="13.83" id="99" /></clipPath><clipPath id="112_text_clipper"><rect x="4.00" y="39.00" width="68.66" height="27.65" id="113" /></clipPath><clipPath id="118_text_clipper"><rect x="4.00" y="51.45" width="68.66" height="27.65" id="119" /></clipPath></defs></svg>