<?xml version="1.0" encoding="UTF-8"?><svg xmlns="http://www.w3.org/2000/svg" viewBox="0 0 302.87 76.1"><defs><style>.cls-1{isolation:isolate;}.cls-1,.cls-2,.cls-3,.cls-4,.cls-5,.cls-6{fill:none;}.cls-7{fill:#fff;}.cls-2{stroke:#ea6a3f;}.cls-2,.cls-3,.cls-4,.cls-5,.cls-6{mix-blend-mode:multiply;stroke-linecap:round;stroke-miterlimit:10;stroke-width:3.59px;}.cls-3{stroke:#fbd026;}.cls-4{stroke:#d6aacd;}.cls-5{stroke:#2fb6df;}.cls-6{stroke:#b5b5b6;}</style></defs><g class="cls-1"><g id="Commutators"><path class="cls-7" d="m99.11,51.93c-2.28,0-4.02-.73-5.22-2.2-1.2-1.47-1.8-3.69-1.8-6.66v-12.28c0-2.97.6-5.19,1.8-6.66,1.2-1.47,2.94-2.21,5.22-2.21,1.65,0,3.01.4,4.09,1.19,1.08.8,1.84,1.92,2.29,3.38.45,1.46.55,3.19.32,5.2-.06.24-.17.36-.32.36h-2.29c-.27,0-.38-.15-.31-.45.18-2.25-.04-3.95-.65-5.11-.62-1.15-1.66-1.73-3.13-1.73-1.32,0-2.33.5-3.04,1.49-.71.99-1.06,2.58-1.06,4.77v11.83c0,2.16.35,3.74,1.06,4.75.7,1,1.72,1.51,3.04,1.51,1.56,0,2.63-.61,3.22-1.84.58-1.23.8-2.89.65-5-.06-.3.04-.45.31-.45h2.12c.27,0,.42.15.45.45.18,3.09-.3,5.48-1.44,7.16-1.14,1.68-2.91,2.52-5.31,2.52Z"/><path class="cls-7" d="m115.08,51.93c-2.01,0-3.5-.59-4.46-1.78-.96-1.18-1.44-3.01-1.44-5.47v-7.88c0-2.49.48-4.33,1.44-5.51.96-1.19,2.44-1.78,4.46-1.78s3.49.59,4.45,1.78,1.44,3.02,1.44,5.51v7.88c0,2.46-.48,4.28-1.44,5.47-.96,1.19-2.45,1.78-4.45,1.78Zm0-2.83c1.05,0,1.81-.34,2.27-1.03.46-.69.7-1.83.7-3.42v-7.74c0-1.62-.23-2.79-.7-3.51-.47-.72-1.22-1.08-2.27-1.08s-1.81.36-2.27,1.08-.7,1.89-.7,3.51v7.74c0,1.59.24,2.73.72,3.42.48.69,1.23,1.03,2.25,1.03Z"/><path class="cls-7" d="m125.07,51.66c-.21,0-.31-.13-.31-.41v-16.06c0-1.26,0-2.29-.02-3.08-.02-.79-.05-1.4-.11-1.82-.03-.33.06-.5.27-.5h2.07c.15,0,.24.14.27.41.06.39.1.76.11,1.12.01.36.04.74.07,1.12.78-.93,1.55-1.65,2.32-2.16.76-.51,1.61-.77,2.54-.77.81,0,1.5.24,2.07.72.57.48.96,1.2,1.17,2.16.75-.9,1.51-1.6,2.27-2.12.76-.51,1.61-.77,2.54-.77,1.08,0,1.93.42,2.54,1.26.61.84.92,2.06.92,3.65v16.83c0,.27-.11.41-.32.41h-2.29c-.21,0-.32-.13-.32-.41v-16.42c0-.87-.13-1.51-.4-1.91-.27-.4-.69-.61-1.26-.61-.54,0-1.09.22-1.67.65-.57.44-1.17,1.06-1.8,1.87v16.42c0,.27-.11.41-.31.41h-2.29c-.21,0-.32-.13-.32-.41v-16.42c0-.87-.13-1.51-.41-1.91-.27-.4-.69-.61-1.26-.61-.54,0-1.1.22-1.67.65-.57.44-1.17,1.06-1.8,1.87v16.42c0,.27-.11.41-.32.41h-2.29Z"/><path class="cls-7" d="m148.25,51.66c-.21,0-.31-.13-.31-.41v-16.06c0-1.26,0-2.29-.02-3.08-.02-.79-.05-1.4-.11-1.82-.03-.33.06-.5.27-.5h2.07c.15,0,.24.14.27.41.06.39.1.76.11,1.12.01.36.04.74.07,1.12.78-.93,1.55-1.65,2.32-2.16.76-.51,1.61-.77,2.54-.77.81,0,1.5.24,2.07.72.57.48.96,1.2,1.17,2.16.75-.9,1.51-1.6,2.27-2.12.76-.51,1.61-.77,2.54-.77,1.08,0,1.93.42,2.54,1.26.61.84.92,2.06.92,3.65v16.83c0,.27-.11.41-.32.41h-2.29c-.21,0-.32-.13-.32-.41v-16.42c0-.87-.13-1.51-.4-1.91-.27-.4-.69-.61-1.26-.61-.54,0-1.09.22-1.67.65-.57.44-1.17,1.06-1.8,1.87v16.42c0,.27-.11.41-.31.41h-2.29c-.21,0-.32-.13-.32-.41v-16.42c0-.87-.13-1.51-.41-1.91-.27-.4-.69-.61-1.26-.61-.54,0-1.1.22-1.67.65-.57.44-1.17,1.06-1.8,1.87v16.42c0,.27-.11.41-.32.41h-2.29Z"/><path class="cls-7" d="m174.84,51.93c-1.38,0-2.35-.44-2.9-1.33-.56-.88-.83-2.27-.83-4.16v-16.24c0-.27.1-.41.31-.41h2.29c.21,0,.32.14.32.41v16.2c0,1.08.13,1.8.38,2.16.25.36.67.54,1.24.54.78,0,1.52-.3,2.23-.9.7-.6,1.39-1.41,2.05-2.43l.27,2.52c-.78,1.05-1.62,1.92-2.52,2.61-.9.69-1.84,1.03-2.83,1.03Zm5.27-.27c-.18,0-.3-.13-.36-.41-.06-.63-.11-1.37-.16-2.23-.04-.85-.07-1.49-.07-1.91l-.23-.27v-16.65c0-.27.12-.41.36-.41h2.25c.21,0,.31.14.31.41v16.06c0,1.26.02,2.29.05,3.08.03.79.06,1.4.09,1.82.03.33-.06.5-.27.5h-1.98Z"/><path class="cls-7" d="m191.63,51.93c-1.53,0-2.62-.46-3.29-1.39-.66-.93-.99-2.49-.99-4.68v-13.27h-1.93c-.24,0-.36-.12-.36-.36v-2.02c0-.27.12-.41.36-.41h2.03l.36-5.49c.03-.24.15-.36.36-.36h1.84c.18,0,.27.12.27.36v5.49h4.05c.24,0,.36.14.36.41v2.02c0,.24-.12.36-.36.36h-4.05v13.19c0,1.23.15,2.1.45,2.61.3.51.81.77,1.53.77.39,0,.77-.05,1.12-.14.36-.09.69-.19.99-.31.24-.09.36-.01.36.22v2.07c0,.27-.11.43-.32.5-.39.12-.83.22-1.3.31-.48.09-.98.13-1.49.13Z"/><path class="cls-7" d="m200.63,51.93c-1.17,0-2.08-.51-2.72-1.53s-.97-2.45-.97-4.28c0-2.04.45-3.68,1.35-4.93.9-1.24,2.37-1.97,4.41-2.18l2.34-.27v2.38l-2.03.27c-1.05.12-1.84.56-2.36,1.3-.53.75-.79,1.82-.79,3.2,0,.99.15,1.77.45,2.34.3.57.7.85,1.21.85s1.03-.2,1.55-.61c.52-.4,1.21-1.16,2.05-2.27l.13,2.61c-.9,1.11-1.68,1.91-2.34,2.38s-1.42.72-2.29.72Zm4.82-.27c-.18,0-.29-.13-.32-.41-.06-.54-.12-1.22-.18-2.05-.06-.83-.09-1.52-.09-2.09l-.18-.22v-11.34c0-1.23-.14-2.08-.43-2.54-.29-.46-.86-.7-1.73-.7s-1.43.23-1.76.7c-.33.47-.45,1.22-.36,2.27,0,.27-.12.4-.36.4h-1.98c-.3,0-.47-.18-.5-.54-.15-1.77.2-3.15,1.06-4.14.85-.99,2.17-1.49,3.94-1.49s3.13.44,3.89,1.31c.76.87,1.15,2.42,1.15,4.63v10.8c0,1.2.01,2.22.04,3.06.03.84.06,1.47.09,1.89.03.3-.04.45-.23.45h-2.07Z"/><path class="cls-7" d="m217.01,51.93c-1.53,0-2.62-.46-3.29-1.39-.66-.93-.99-2.49-.99-4.68v-13.27h-1.93c-.24,0-.36-.12-.36-.36v-2.02c0-.27.12-.41.36-.41h2.03l.36-5.49c.03-.24.15-.36.36-.36h1.84c.18,0,.27.12.27.36v5.49h4.05c.24,0,.36.14.36.41v2.02c0,.24-.12.36-.36.36h-4.05v13.19c0,1.23.15,2.1.45,2.61.3.51.81.77,1.53.77.39,0,.77-.05,1.12-.14.36-.09.69-.19.99-.31.24-.09.36-.01.36.22v2.07c0,.27-.11.43-.32.5-.39.12-.83.22-1.3.31-.48.09-.98.13-1.49.13Z"/><path class="cls-7" d="m228.39,51.93c-2.01,0-3.5-.59-4.46-1.78-.96-1.18-1.44-3.01-1.44-5.47v-7.88c0-2.49.48-4.33,1.44-5.51.96-1.19,2.44-1.78,4.46-1.78s3.49.59,4.45,1.78,1.44,3.02,1.44,5.51v7.88c0,2.46-.48,4.28-1.44,5.47-.96,1.19-2.45,1.78-4.45,1.78Zm0-2.83c1.05,0,1.81-.34,2.27-1.03.46-.69.7-1.83.7-3.42v-7.74c0-1.62-.23-2.79-.7-3.51-.47-.72-1.22-1.08-2.27-1.08s-1.81.36-2.27,1.08-.7,1.89-.7,3.51v7.74c0,1.59.24,2.73.72,3.42.48.69,1.23,1.03,2.25,1.03Z"/><path class="cls-7" d="m238.38,51.66c-.21,0-.31-.13-.31-.41v-16.06c0-1.26,0-2.29-.02-3.08-.02-.79-.05-1.4-.11-1.82-.03-.33.06-.5.27-.5h2.07c.15,0,.24.14.27.41.06.6.12,1.33.18,2.18s.09,1.51.09,1.96l.18.27v16.65c0,.27-.11.41-.32.41h-2.29Zm2.34-15.84l-.18-2.83c.36-.57.77-1.12,1.24-1.64.46-.52.97-.96,1.53-1.31.55-.34,1.15-.52,1.78-.52.27,0,.5.02.67.04.12.03.2.09.25.18s.07.21.07.36c0,.51,0,.99-.02,1.44-.02.45-.05.93-.11,1.44-.03.21-.14.3-.32.27-.15-.06-.31-.1-.47-.11-.17-.01-.35-.02-.56-.02-.63,0-1.3.24-2.02.72-.72.48-1.34,1.14-1.85,1.98Z"/><path class="cls-7" d="m252.74,51.93c-1.83,0-3.17-.57-4-1.71-.84-1.14-1.19-2.8-1.04-4.99,0-.24.1-.36.31-.36h2.29c.18,0,.27.11.27.31-.03,1.44.11,2.46.43,3.06.31.6.92.9,1.82.9,1.53,0,2.29-.99,2.29-2.97,0-.78-.13-1.43-.38-1.96-.25-.52-.68-1.03-1.28-1.51l-2.97-2.34c-.93-.72-1.61-1.54-2.03-2.45s-.63-2.02-.63-3.31c0-1.62.43-2.87,1.28-3.76.86-.88,2.09-1.33,3.71-1.33s2.95.51,3.8,1.53c.85,1.02,1.19,2.42,1.01,4.19,0,.24-.11.36-.31.36h-2.25c-.06,0-.13-.01-.2-.04-.08-.03-.1-.16-.07-.41.06-.9-.08-1.6-.4-2.11-.33-.51-.89-.77-1.67-.77-1.38,0-2.07.78-2.07,2.34,0,.75.14,1.38.43,1.89.28.51.71,1.02,1.28,1.53l2.92,2.34c1.02.84,1.72,1.67,2.09,2.47.38.81.56,1.88.56,3.2,0,1.92-.44,3.38-1.33,4.39-.89,1-2.18,1.51-3.89,1.51Z"/></g><g id="Circle"><circle class="cls-7" cx="38" cy="38" r="33.8"/></g><g id="Logo"><line class="cls-5" x1="48.8" y1="10" x2="57.1" y2="59.7"/><line class="cls-5" x1="28.2" y1="21" x2="57.1" y2="59.7"/><line class="cls-4" x1="9.1" y1="40.5" x2="28.2" y2="21"/><line class="cls-6" x1="9.1" y1="40.5" x2="57.1" y2="59.7"/><line class="cls-5" x1="57.1" y1="59.7" x2="62.4" y2="44.9"/><line class="cls-2" x1="28.2" y1="21" x2="62.4" y2="44.9"/><line class="cls-6" x1="9.1" y1="40.5" x2="62.4" y2="44.9"/><line class="cls-3" x1="48.8" y1="10" x2="62.4" y2="44.9"/></g></g></svg>