<?xml version="1.0" standalone="yes"?><!DOCTYPE svg PUBLIC "-//W3C//DTD SVG 1.1//EN" "http://www.w3.org/Graphics/SVG/1.1/DTD/svg11.dtd"[
<!ENTITY E16 'matrix(1.00 0.00 0.00 1.00 84.00 4.00 ) '><!ENTITY E7 'matrix(1.00 0.00 0.00 1.00 0.00 0.00 ) '><!ENTITY E4 'stroke:rgb(169,169,169);fill:none;stroke-linecap:butt;stroke-miterlimit:9;opacity:1;stroke-width:2;stroke-linejoin:miter;'><!ENTITY E3 'M 1.5363 7.8 C 1.99103 6.9385 2.52798 6.1205 3.1403 5.3587 3.7527 4.5967 4.4403 3.8909 5.1968 3.254 5.95315 2.617 6.7782 2.049 7.665299 1.5627 M 0.4537992 19.4997 C 0.1435492 18.4956 -0.05714077 17.4835 -0.1564507 16.4769 -0.2551987 15.4701 -0.2516447 14.4684 -0.1525816 13.4844 -0.05334165 12.5007 0.1414284 11.5347 0.4251484 10.5993 M 7.892348 28.3993 C 7.030958 27.9447 6.212848 27.4077 5.450948 26.7954 4.689008 26.1831 3.983248 25.4954 3.346348 24.739 2.709558 23.9826 2.141548 23.1575 1.655148 22.2704 M 19.49415 29.4993 C 18.48995 29.8096 17.47785 30.0103 16.47125 30.1096 15.46445 30.2084 14.46285 30.2049 13.47895 30.1018 12.49507 30.0028 11.52915 29.8079 10.59365 29.5242 M 28.46365 22.0993 C 28.00892 22.9606 27.472 23.7788 26.85965 24.5407 26.24738 25.3026 25.55945 26.0084 24.80315 26.6453 24.0468 27.2822 23.22175 27.8502 22.33465 28.3365 M 29.54565 10.4995 C 29.85594 11.5037 30.05659 12.5157 30.15594 13.5224 30.25481 14.5292 30.25114 15.531 30.15199 16.5147 30.05279 17.4986 29.85802 18.4646 29.5743 19.4 M 22.10769 1.499998 C 22.96908 1.954698 23.7872 2.491698 24.5491 3.103898 25.31104 3.716298 26.0168 4.404098 26.65369 5.160398 27.29052 5.916898 27.85859 6.741898 28.34499 7.629098 M 10.50499 0.3999977 C 11.50919 0.08969772 12.52109 -0.1109023 13.52779 -0.2103023 14.53469 -0.3090023 15.53619 -0.3055023 16.52009 -0.2103023 17.50401 -0.1111023 18.46999 0.08369771 19.40549 0.3673977 '><!ENTITY E20 'matrix(1.00 0.00 0.00 1.00 4.00 4.00 ) '><!ENTITY E5 'stroke:none;opacity:1;fill:rgb(255,255,255);'><!ENTITY E13 'matrix(1.00 0.00 0.00 1.00 164.00 4.00 ) '><!ENTITY E1 'matrix(1.00 0.00 0.00 1.00 324.00 4.00 ) '><!ENTITY E9 'matrix(1.00 0.00 0.00 1.00 244.00 4.00 ) '><!ENTITY E2 'stroke:none;opacity:1;fill:rgb(238,192,75);'>
]><svg width="389.0324" height="80.47558" id="SvgGdi_output" xmlns="http://www.w3.org/2000/svg"><rect id="background" height="100.00%" style="fill:rgb(255,255,255);" width="100.00%" y="0.00" x="0.00" /><g style="shape-rendering:auto;" id="root_group"><ellipse id="87" cy="15.00" cx="15.00" transform="&E1;" rx="15.00" ry="15.00" style="&E2;" /><path d="&E3;" style="&E4;" transform="&E1;" id="88" /><ellipse id="89" cy="9.06" cx="15.01" transform="&E1;" rx="3.50" ry="3.50" style="&E5;" /><ellipse id="90" cy="18.49" cx="9.12" transform="&E1;" rx="3.50" ry="3.50" style="&E5;" /><ellipse id="91" cy="18.46" cx="20.88" transform="&E1;" rx="3.50" ry="3.50" style="&E5;" /><text id="92" transform="&E7;" x="324.00" y="39.00" style="stroke:none;clip-path:url(#94_text_clipper);font-family:Microsoft Sans Serif;fill:rgb(0,0,0);font-size:8.25pt;opacity:1;"><tspan dy="8.25pt" id="96">Headstage </tspan></text><text id="98" transform="&E7;" x="324.00" y="51.45" style="stroke:none;clip-path:url(#100_text_clipper);font-family:Microsoft Sans Serif;fill:rgb(0,0,0);font-size:8.25pt;opacity:1;"><tspan dy="8.25pt" id="102">Port Control</tspan></text><ellipse id="104" cy="15.00" cx="15.00" transform="&E9;" rx="15.00" ry="15.00" style="&E2;" /><path d="&E3;" style="&E4;" transform="&E9;" id="105" /><ellipse id="106" cy="9.06" cx="15.01" transform="&E9;" rx="3.50" ry="3.50" style="&E5;" /><ellipse id="107" cy="18.49" cx="9.12" transform="&E9;" rx="3.50" ry="3.50" style="&E5;" /><ellipse id="108" cy="18.46" cx="20.88" transform="&E9;" rx="3.50" ry="3.50" style="&E5;" /><text id="109" transform="&E7;" x="244.00" y="39.00" style="stroke:none;clip-path:url(#111_text_clipper);font-family:Microsoft Sans Serif;fill:rgb(0,0,0);font-size:8.25pt;opacity:1;"><tspan dy="8.25pt" id="113">TS4231 </tspan></text><text id="115" transform="&E7;" x="244.00" y="51.45" style="stroke:none;clip-path:url(#117_text_clipper);font-family:Microsoft Sans Serif;fill:rgb(0,0,0);font-size:8.25pt;opacity:1;"><tspan dy="8.25pt" id="119">Lighthouse </tspan></text><text id="121" transform="&E7;" x="244.00" y="63.90" style="stroke:none;clip-path:url(#123_text_clipper);font-family:Microsoft Sans Serif;fill:rgb(0,0,0);font-size:8.25pt;opacity:1;"><tspan dy="8.25pt" id="125">Receivers</tspan></text><ellipse id="127" cy="15.00" cx="15.00" transform="&E13;" rx="15.00" ry="15.00" style="&E2;" /><path d="&E3;" style="&E4;" transform="&E13;" id="128" /><ellipse id="129" cy="9.06" cx="15.01" transform="&E13;" rx="3.50" ry="3.50" style="&E5;" /><ellipse id="130" cy="18.49" cx="9.12" transform="&E13;" rx="3.50" ry="3.50" style="&E5;" /><ellipse id="131" cy="18.46" cx="20.88" transform="&E13;" rx="3.50" ry="3.50" style="&E5;" /><text id="132" transform="&E7;" x="164.00" y="39.00" style="stroke:none;clip-path:url(#134_text_clipper);font-family:Microsoft Sans Serif;fill:rgb(0,0,0);font-size:8.25pt;opacity:1;"><tspan dy="8.25pt" id="136">RHD2164 </tspan></text><text id="138" transform="&E7;" x="164.00" y="51.45" style="stroke:none;clip-path:url(#140_text_clipper);font-family:Microsoft Sans Serif;fill:rgb(0,0,0);font-size:8.25pt;opacity:1;"><tspan dy="8.25pt" id="142">Ephys Chip</tspan></text><ellipse id="144" cy="15.00" cx="15.00" transform="&E16;" rx="15.00" ry="15.00" style="&E2;" /><path d="&E3;" style="&E4;" transform="&E16;" id="145" /><ellipse id="146" cy="9.06" cx="15.01" transform="&E16;" rx="3.50" ry="3.50" style="&E5;" /><ellipse id="147" cy="18.49" cx="9.12" transform="&E16;" rx="3.50" ry="3.50" style="&E5;" /><ellipse id="148" cy="18.46" cx="20.88" transform="&E16;" rx="3.50" ry="3.50" style="&E5;" /><text id="149" transform="&E7;" x="84.00" y="39.00" style="stroke:none;clip-path:url(#151_text_clipper);font-family:Microsoft Sans Serif;fill:rgb(0,0,0);font-size:8.25pt;opacity:1;"><tspan dy="8.25pt" id="153">BNO055 9-</tspan></text><text id="155" transform="&E7;" x="84.00" y="51.45" style="stroke:none;clip-path:url(#157_text_clipper);font-family:Microsoft Sans Serif;fill:rgb(0,0,0);font-size:8.25pt;opacity:1;"><tspan dy="8.25pt" id="159">Axis IMU</tspan></text><path style="&E4;" transform="&E20;" id="161" d="M 31.179 5.2 C 34.9985 11.0918 34.9814 18.682 31.13552 24.557 " /><ellipse id="162" cy="15.00" cx="15.00" transform="&E20;" rx="15.00" ry="15.00" style="stroke:none;opacity:1;fill:rgb(91,178,126);" /><path transform="&E20;" id="163" style="stroke:none;fill-rule:evenodd;opacity:1;fill:rgb(76,76,76);" d="M 11.40635 5.533117 C 11.08981 5.525167 10.7681 5.608327 10.48144 5.791713 9.717002 6.281695 9.494105 7.298927 9.983113 8.064343 L 13.89604 14.17439 10.51352 18.17604 C 9.927865 18.86897 10.01217 19.90453 10.70607 20.49019 11.01436 20.75113 11.39189 20.87903 11.76687 20.87903 12.23366 20.87903 12.69927 20.68041 13.024 20.29577 L 15.74963 17.07181 19.67576 23.20451 C 19.98986 23.69353 20.51999 23.95954 21.06314 23.95954 21.36563 23.95954 21.66919 23.87682 21.94463 23.70094 22.71101 23.21096 22.93579 22.19465 22.44484 21.4302 L 17.9713 14.44432 21.91443 9.780142 C 22.50009 9.087208 22.41392 8.049756 21.72001 7.464097 21.02708 6.878439 19.99058 6.964616 19.40396 7.658517 L 16.11772 11.5469 12.75217 6.291918 C 12.44595 5.814137 11.93391 5.54632 11.40635 5.533117 z " /><path transform="&E20;" id="164" style="stroke:none;fill-rule:evenodd;opacity:1;fill:rgb(255,255,255);" d="M 9.389855 6.380575 C 9.07332 6.372625 8.75161 6.455785 8.464944 6.639173 7.700491 7.129154 7.477596 8.146385 7.966622 8.911801 L 11.87955 15.02186 8.497032 19.0235 C 7.911374 19.71643 7.99566 20.75199 8.68956 21.33765 8.997852 21.59859 9.375383 21.72649 9.750364 21.72649 10.21715 21.72649 10.68276 21.52787 11.00748 21.14323 L 13.73314 17.91927 17.65927 24.05198 C 17.97336 24.54099 18.5035 24.807 19.04663 24.807 19.34913 24.807 19.65269 24.72428 19.92812 24.5484 20.69451 24.05842 20.91928 23.04211 20.42833 22.27766 L 15.9548 15.29178 19.89792 10.6276 C 20.48358 9.934668 20.39741 8.897216 19.7035 8.311556 19.01057 7.725897 17.97409 7.812076 17.38746 8.505975 L 14.10121 12.39436 10.73568 7.139376 C 10.42944 6.661595 9.917402 6.39378 9.389855 6.380575 z " /><text id="165" transform="&E7;" x="4.00" y="39.00" style="stroke:none;clip-path:url(#167_text_clipper);font-family:Microsoft Sans Serif;fill:rgb(0,0,0);font-size:8.25pt;opacity:1;"><tspan dy="8.25pt" id="169">ONI Context</tspan></text><text id="171" transform="&E7;" x="4.00" y="51.45" style="stroke:none;clip-path:url(#173_text_clipper);font-family:Microsoft Sans Serif;fill:rgb(0,0,0);font-size:8.25pt;opacity:1;"><tspan dy="8.25pt" id="175">(riffa,0)</tspan></text></g><defs id="clips_hatches_and_gradients"><clipPath id="94_text_clipper"><rect x="324.00" y="39.00" width="64.03" height="27.65" id="95" /></clipPath><clipPath id="100_text_clipper"><rect x="324.00" y="51.45" width="64.03" height="27.65" id="101" /></clipPath><clipPath id="111_text_clipper"><rect x="244.00" y="39.00" width="59.17" height="41.48" id="112" /></clipPath><clipPath id="117_text_clipper"><rect x="244.00" y="51.45" width="59.17" height="41.48" id="118" /></clipPath><clipPath id="123_text_clipper"><rect x="244.00" y="63.90" width="59.17" height="41.48" id="124" /></clipPath><clipPath id="134_text_clipper"><rect x="164.00" y="39.00" width="61.53" height="27.65" id="135" /></clipPath><clipPath id="140_text_clipper"><rect x="164.00" y="51.45" width="61.53" height="27.65" id="141" /></clipPath><clipPath id="151_text_clipper"><rect x="84.00" y="39.00" width="60.20" height="27.65" id="152" /></clipPath><clipPath id="157_text_clipper"><rect x="84.00" y="51.45" width="60.20" height="27.65" id="158" /></clipPath><clipPath id="167_text_clipper"><rect x="4.00" y="39.00" width="65.86" height="27.65" id="168" /></clipPath><clipPath id="173_text_clipper"><rect x="4.00" y="51.45" width="65.86" height="27.65" id="174" /></clipPath></defs></svg>