<?xml version="1.0" encoding="UTF-8" standalone="no"?>
<svg
   xmlns:dc="http://purl.org/dc/elements/1.1/"
   xmlns:cc="http://creativecommons.org/ns#"
   xmlns:rdf="http://www.w3.org/1999/02/22-rdf-syntax-ns#"
   xmlns:svg="http://www.w3.org/2000/svg"
   xmlns="http://www.w3.org/2000/svg"
   xml:space="preserve"
   style="enable-background:new 0 0 612 612;"
   viewBox="0 0 612 612"
   y="0px"
   x="0px"
   id="Capa_1"
   version="1.1"><metadata
   id="metadata47"><rdf:RDF><cc:Work
       rdf:about=""><dc:format>image/svg+xml</dc:format><dc:type
         rdf:resource="http://purl.org/dc/dcmitype/StillImage" /><dc:title></dc:title></cc:Work></rdf:RDF></metadata><defs
   id="defs45">
	

		
	
			
			
		</defs>
<path
   id="path2"
   d="m 400.74023,35.177734 c -65.26005,1.181678 -130.73969,-1.378943 -195.86328,1.332032 -8.35338,5.406632 -5.51335,16.930409 -5.57031,25.236328 0,76.088546 0,152.177086 0,228.265626 -32.65152,1.55799 -65.71782,-2.06041 -98.01953,1.81055 -6.926997,4.71001 -5.102953,16.50427 2.6227,19.36973 66.73488,52.40337 131.96818,106.92603 199.69566,157.93691 10.80364,0.88412 17.12148,-9.7954 25.24124,-15.08036 61.76962,-49.95981 125.25154,-97.97098 185.73727,-149.41769 3.21959,-7.76814 -5.03934,-16.98426 -13.12304,-14.34161 -29.5788,0.0832 -59.15752,-0.0976 -88.73633,-0.0725 -0.70196,-82.96963 1.23511,-166.08123 -0.99805,-248.960941 -2.01532,-3.979505 -6.60286,-6.295672 -10.98633,-6.078125 z m -178.7207,20.925782 c 56.63932,0 113.27865,0 169.91797,0 0.87492,83.104944 -1.55014,166.381514 1.23438,249.376954 6.04907,8.77772 18.26017,4.98148 27.1621,5.44922 18.31185,0 36.6237,0 54.93555,0 -56.42374,44.96365 -112.8469,89.92803 -169.27148,134.89062 -55.64402,-44.34016 -111.28634,-88.68244 -166.92969,-133.02343 25.30866,-4.87261 51.45066,1.41038 76.59375,-3.76172 7.67436,-7.0342 3.64104,-18.4692 4.35742,-27.5586 0,-75.12435 0,-150.2487 0,-225.373044 h 1 z" /><path
   id="path4"
   d="m 17.441406,407.52539 c -8.8592917,0.76863 -11.307434,12.14189 -9.4273247,19.3867 0.4999906,47.86256 -1.1073316,95.8544 0.8491999,143.63283 4.7195698,8.74027 16.4186718,5.99423 24.5410148,6.06164 187.787464,-0.2405 375.588124,0.52224 563.367184,-0.40734 9.27888,-3.58723 7.70355,-14.97697 7.18608,-22.9589 -0.52693,-46.75434 1.34694,-93.69124 -1.01811,-140.32626 -3.91877,-8.01952 -19.1463,-6.56909 -19.16992,3.34571 -1.57102,13.94978 0.47822,27.94598 -0.48437,41.96875 0,32.55599 0,65.11197 0,97.66796 -184.8431,0 -369.6862,0 -554.529301,0 -0.762553,-47.49619 1.326568,-95.16784 -1.064453,-142.55078 -1.856653,-3.76307 -6.04973,-6.19382 -10.25,-5.82031 z"
   style="stroke-width:1;stroke-miterlimit:4;stroke-dasharray:none" />
<g
   id="g12">
</g>
<g
   id="g14">
</g>
<g
   id="g16">
</g>
<g
   id="g18">
</g>
<g
   id="g20">
</g>
<g
   id="g22">
</g>
<g
   id="g24">
</g>
<g
   id="g26">
</g>
<g
   id="g28">
</g>
<g
   id="g30">
</g>
<g
   id="g32">
</g>
<g
   id="g34">
</g>
<g
   id="g36">
</g>
<g
   id="g38">
</g>
<g
   id="g40">
</g>
</svg>