<?xml version="1.0" encoding="UTF-8" standalone="no"?>
<!-- Generator: Adobe Illustrator 25.2.1, SVG Export Plug-In . SVG Version: 6.00 Build 0)  -->

<svg
   version="1.1"
   id="Layer_1"
   x="0px"
   y="0px"
   viewBox="0 0 300 75.000001"
   xml:space="preserve"
   sodipodi:docname="oe_logo_name.svg"
   inkscape:version="1.2 (dc2aedaf03, 2022-05-15)"
   width="300"
   height="75"
   xmlns:inkscape="http://www.inkscape.org/namespaces/inkscape"
   xmlns:sodipodi="http://sodipodi.sourceforge.net/DTD/sodipodi-0.dtd"
   xmlns="http://www.w3.org/2000/svg"
   xmlns:svg="http://www.w3.org/2000/svg"
   xmlns:ns="&amp;#38;#38;#38;#38;ns_sfw;"><defs
   id="defs66"><linearGradient
     id="linearGradient990"
     inkscape:swatch="solid"><stop
       style="stop-color:#ffffff;stop-opacity:1;"
       offset="0"
       id="stop988" /></linearGradient></defs><sodipodi:namedview
   id="namedview64"
   pagecolor="#ffffff"
   bordercolor="#000000"
   borderopacity="0.25"
   inkscape:showpageshadow="2"
   inkscape:pageopacity="0.0"
   inkscape:pagecheckerboard="0"
   inkscape:deskcolor="#d1d1d1"
   showgrid="false"
   inkscape:zoom="1.7995868"
   inkscape:cx="146.97818"
   inkscape:cy="-54.456945"
   inkscape:window-width="1920"
   inkscape:window-height="1046"
   inkscape:window-x="-11"
   inkscape:window-y="-11"
   inkscape:window-maximized="1"
   inkscape:current-layer="text381" />
<style
   type="text/css"
   id="style2">
	.st0{fill:#FFFFFF;}
	.st1{fill:none;stroke:#2FB6DF;stroke-width:3.59;stroke-linecap:round;stroke-miterlimit:10;}
	.st2{fill:none;stroke:#D6AACD;stroke-width:3.59;stroke-linecap:round;stroke-miterlimit:10;}
	.st3{fill:none;stroke:#B5B5B6;stroke-width:3.59;stroke-linecap:round;stroke-miterlimit:10;}
	.st4{fill:none;stroke:#EA6A3F;stroke-width:3.59;stroke-linecap:round;stroke-miterlimit:10;}
	.st5{fill:none;stroke:#FBD026;stroke-width:3.59;stroke-linecap:round;stroke-miterlimit:10;}
	.st6{fill:#2FB6DF;}
	.st7{fill:none;stroke:#D15527;stroke-width:3.59;stroke-linecap:round;stroke-miterlimit:10;}
	.st8{fill:none;}
</style>
<metadata
   id="metadata4">
	<ns:sfw>
		<ns:slices />
		<ns:sliceSourceBounds
   bottomLeftOrigin="true"
   height="75"
   width="232.4"
   x="0"
   y="0.1" />
	</ns:sfw>
</metadata>

<g
   id="g61">
	
	
	
	
	
	
	
	
	
	
	
	
<g
   aria-label="Coax Commutator"
   id="text503"
   style="font-weight:bold;font-size:37.3333px;font-family:Miso;-inkscape-font-specification:'Miso Bold';stroke:#000000;stroke-width:1.13386;stroke-linejoin:round"><g
     aria-label="Commutators"
     id="text381"
     style="stroke:none"><g
       id="g309"
       transform="translate(0.55568312)"><g
         id="g35">
	<g
   id="Layer_1_1_">
		<circle
   class="st0"
   cx="37.5"
   cy="37.5"
   r="33.799999"
   id="circle6" />
		<line
   class="st1"
   x1="48.299999"
   y1="9.5"
   x2="56.599998"
   y2="59.200001"
   id="line8" />
		<line
   class="st1"
   x1="27.700001"
   y1="20.5"
   x2="56.599998"
   y2="59.200001"
   id="line10" />
		<line
   class="st2"
   x1="8.6000004"
   y1="40"
   x2="27.700001"
   y2="20.5"
   id="line12" />
		<line
   class="st3"
   x1="8.6000004"
   y1="40"
   x2="56.599998"
   y2="59.200001"
   id="line14" />
		<line
   class="st1"
   x1="56.599998"
   y1="59.200001"
   x2="61.900002"
   y2="44.400002"
   id="line16" />
		<line
   class="st4"
   x1="27.700001"
   y1="20.5"
   x2="61.900002"
   y2="44.400002"
   id="line18" />
		<line
   class="st3"
   x1="8.6000004"
   y1="40"
   x2="61.900002"
   y2="44.400002"
   id="line20" />
		<line
   class="st5"
   x1="48.299999"
   y1="9.5"
   x2="61.900002"
   y2="44.400002"
   id="line22" />
		<path
   class="st6"
   d="M 40.5,28.5"
   id="path24" />
		<path
   class="st7"
   d="M 41.9,29.7"
   id="path26" />
		<path
   class="st6"
   d="M 28.1,30.2"
   id="path28" />
		<path
   class="st6"
   d="M 28.1,30.2"
   id="path30" />
		<circle
   class="st8"
   cx="37.5"
   cy="37.5"
   r="37.5"
   id="circle32" />
	</g>
</g><path
         d="m 92.809231,51.575977 c 2.799997,0.746666 5.599995,-0.410667 7.055994,-2.911998 0.559995,-0.858666 0.223995,-1.903998 -0.634666,-2.463998 -0.858666,-0.485333 -1.903999,-0.186666 -2.463998,0.672 -0.597333,1.045332 -1.829332,1.567998 -3.023998,1.269332 -1.157332,-0.336 -1.978665,-1.381332 -1.978665,-2.613331 V 32.834659 c 0,-1.194665 0.821333,-2.277331 1.978665,-2.575998 1.194666,-0.335999 2.426665,0.186667 3.023998,1.231999 0.559999,0.858666 1.605332,1.157333 2.463998,0.672 0.858661,-0.56 1.194661,-1.605332 0.634666,-2.463998 -1.455999,-2.501331 -4.255997,-3.658664 -7.055994,-2.911998 -2.725331,0.709333 -4.62933,3.210664 -4.62933,6.047995 v 12.693323 c 0,2.874664 1.903999,5.338662 4.62933,6.047995 z"
         id="path1098"
         style="fill:#ffffff" /><path
         d="m 108.07856,51.687977 c 2.98666,0 5.41333,-2.426665 5.41333,-5.413329 v -7.466661 c 0,-2.986664 -2.42667,-5.413328 -5.41333,-5.413328 -2.98667,0 -5.41333,2.426664 -5.41333,5.413328 v 7.466661 c 0,2.986664 2.42666,5.413329 5.41333,5.413329 z m 0,-14.933321 c 1.15733,0 2.05333,0.895999 2.05333,2.053331 v 7.466661 c 0,1.157332 -0.896,2.053331 -2.05333,2.053331 -1.15733,0 -2.05333,-0.895999 -2.05333,-2.053331 v -7.466661 c 0,-1.157332 0.896,-2.053331 2.05333,-2.053331 z"
         id="path1100"
         style="fill:#ffffff" /><path
         d="m 120.51053,36.903989 h 4.10666 v 13.103989 c 0,0.933332 0.74667,1.679999 1.68,1.679999 0.896,0 1.68,-0.746667 1.68,-1.679999 V 36.903989 h 2.05333 c 1.15733,0 2.05333,0.895999 2.05333,2.053332 v 11.050657 c 0,0.933332 0.74667,1.679999 1.68,1.679999 0.896,0 1.68,-0.746667 1.68,-1.679999 V 38.957321 c 0,-2.986664 -2.464,-5.413329 -5.41333,-5.413329 h -11.19999 c -0.93333,0 -1.68,0.746666 -1.68,1.679999 v 14.783987 c 0,0.933332 0.74667,1.679999 1.68,1.679999 0.896,0 1.68,-0.746667 1.68,-1.679999 z"
         id="path1102"
         style="fill:#ffffff" /><path
         d="m 142.61181,36.903989 h 4.10666 v 13.103989 c 0,0.933332 0.74667,1.679999 1.68,1.679999 0.896,0 1.68,-0.746667 1.68,-1.679999 V 36.903989 h 2.05333 c 1.15733,0 2.05333,0.895999 2.05333,2.053332 v 11.050657 c 0,0.933332 0.74667,1.679999 1.68,1.679999 0.896,0 1.68,-0.746667 1.68,-1.679999 V 38.957321 c 0,-2.986664 -2.464,-5.413329 -5.41333,-5.413329 h -11.19999 c -0.93333,0 -1.68,0.746666 -1.68,1.679999 v 14.783987 c 0,0.933332 0.74667,1.679999 1.68,1.679999 0.896,0 1.68,-0.746667 1.68,-1.679999 z"
         id="path1104"
         style="fill:#ffffff" /><path
         d="m 166.46775,51.538643 h 3.73333 c 0.93334,0 1.68,-0.746666 1.68,-1.679998 V 35.074657 c 0,-0.933332 -0.74666,-1.679998 -1.68,-1.679998 -0.93333,0 -1.68,0.746666 -1.68,1.679998 v 13.103989 h -2.05333 c -1.15733,0 -2.05333,-0.895999 -2.05333,-2.053331 V 35.074657 c 0,-0.933332 -0.74666,-1.679998 -1.68,-1.679998 -0.93333,0 -1.68,0.746666 -1.68,1.679998 v 11.050658 c 0,2.986664 2.42667,5.413328 5.41333,5.413328 z"
         id="path1106"
         style="fill:#ffffff" /><path
         d="m 176.02508,36.903989 h 1.30667 v 9.370659 c 0,2.986664 2.42666,5.413329 5.41333,5.413329 0.93333,0 1.68,-0.746667 1.68,-1.679999 0,-0.933333 -0.74667,-1.679999 -1.68,-1.679999 -1.15734,0 -2.05333,-0.895999 -2.05333,-2.053331 v -9.370659 h 2.05333 c 0.93333,0 1.68,-0.746666 1.68,-1.679998 0,-0.933333 -0.74667,-1.679999 -1.68,-1.679999 h -2.05333 v -5.935995 c 0,-0.933333 -0.74667,-1.679999 -1.68,-1.679999 -0.93334,0 -1.68,0.746666 -1.68,1.679999 v 5.935995 h -1.30667 c -0.93333,0 -1.68,0.746666 -1.68,1.679999 0,0.933332 0.74667,1.679998 1.68,1.679998 z"
         id="path1108"
         style="fill:#ffffff" /><path
         d="m 193.01171,40.711986 h -2.05333 c -2.98666,0 -5.41333,2.426664 -5.41333,5.413329 0,2.986664 2.42667,5.413328 5.41333,5.413328 h 3.73333 c 0.93333,0 1.68,-0.746666 1.68,-1.679998 V 38.733321 c 0,-2.202665 -1.26933,-4.06933 -3.32266,-4.927996 -1.97867,-0.858666 -4.256,-0.373333 -5.78666,1.157332 -0.336,0.336 -0.52267,0.746666 -0.52267,1.194666 0,0.448 0.18667,0.858666 0.52267,1.194666 0.336,0.335999 0.70933,0.485333 1.15733,0.485333 0.48533,0 0.85866,-0.149334 1.19466,-0.485333 0.56,-0.597333 1.41867,-0.746666 2.16533,-0.448 0.74667,0.298667 1.232,1.045333 1.232,1.829332 z m -2.05333,3.359997 h 2.05333 v 4.106663 h -2.05333 c -1.15733,0 -2.05333,-0.895999 -2.05333,-2.053331 0,-1.157333 0.896,-2.053332 2.05333,-2.053332 z"
         id="path1110"
         style="fill:#ffffff" /><path
         d="m 200.21702,36.903989 h 1.30666 v 9.370659 c 0,2.986664 2.42667,5.413329 5.41333,5.413329 0.93333,0 1.68,-0.746667 1.68,-1.679999 0,-0.933333 -0.74667,-1.679999 -1.68,-1.679999 -1.15733,0 -2.05333,-0.895999 -2.05333,-2.053331 v -9.370659 h 2.05333 c 0.93333,0 1.68,-0.746666 1.68,-1.679998 0,-0.933333 -0.74667,-1.679999 -1.68,-1.679999 h -2.05333 v -5.935995 c 0,-0.933333 -0.74667,-1.679999 -1.68,-1.679999 -0.93333,0 -1.68,0.746666 -1.68,1.679999 v 5.935995 h -1.30666 c -0.93334,0 -1.68,0.746666 -1.68,1.679999 0,0.933332 0.74666,1.679998 1.68,1.679998 z"
         id="path1112"
         style="fill:#ffffff" /><path
         d="m 216.19566,51.687977 c 2.98666,0 5.41332,-2.426665 5.41332,-5.413329 v -7.466661 c 0,-2.986664 -2.42666,-5.413328 -5.41332,-5.413328 -2.98667,0 -5.41333,2.426664 -5.41333,5.413328 v 7.466661 c 0,2.986664 2.42666,5.413329 5.41333,5.413329 z m 0,-14.933321 c 1.15733,0 2.05333,0.895999 2.05333,2.053331 v 7.466661 c 0,1.157332 -0.896,2.053331 -2.05333,2.053331 -1.15734,0 -2.05334,-0.895999 -2.05334,-2.053331 v -7.466661 c 0,-1.157332 0.896,-2.053331 2.05334,-2.053331 z"
         id="path1114"
         style="fill:#ffffff" /><path
         d="m 226.94762,51.687977 c 0.93334,0 1.68,-0.746667 1.68,-1.679999 V 36.903989 h 2.05333 c 0.336,0 0.672,0.07467 1.008,0.261333 0.85867,0.485333 1.82934,0.186667 2.31467,-0.597333 0.448,-0.858666 0.224,-1.829331 -0.63467,-2.314664 -0.85866,-0.485333 -1.75466,-0.709333 -2.688,-0.709333 h -3.73333 c -0.93333,0 -1.67999,0.746666 -1.67999,1.679999 v 14.783987 c 0,0.933332 0.74666,1.679999 1.67999,1.679999 z"
         id="path1116"
         style="fill:#ffffff" /><path
         d="m 241.5076,47.842646 c -0.448,0.410667 -0.93333,0.56 -1.49333,0.448 -0.59734,-0.07467 -1.04534,-0.373333 -1.30667,-0.895999 -0.448,-0.783999 -1.456,-1.045333 -2.31466,-0.597333 -0.784,0.448 -1.04534,1.493332 -0.59734,2.277331 0.784,1.381333 2.09067,2.277332 3.696,2.538665 1.60533,0.261333 3.136,-0.224 4.29333,-1.269332 1.19467,-1.082666 1.792,-2.575998 1.68,-4.18133 -0.112,-1.605332 -0.896,-2.986664 -2.20267,-3.919997 l -3.47199,-2.426664 c -0.41067,-0.336 -0.672,-0.746666 -0.70934,-1.269333 -0.0373,-0.559999 0.14934,-1.007999 0.56,-1.343998 0.41067,-0.373333 0.896,-0.522667 1.38134,-0.410667 0.52266,0.07467 0.93333,0.336 1.19466,0.821333 0.448,0.783999 1.49333,1.045332 2.27733,0.597333 0.85867,-0.448 1.08267,-1.493332 0.63467,-2.277332 -0.784,-1.343999 -2.09067,-2.202665 -3.584,-2.463998 -1.53066,-0.261333 -3.024,0.224 -4.18133,1.231999 -1.15733,1.045333 -1.75466,2.538665 -1.64266,4.06933 0.112,1.530666 0.896,2.911998 2.12799,3.807997 l 3.50934,2.426665 c 0.44799,0.298666 0.70933,0.746666 0.74666,1.381332 0.0373,0.597333 -0.14933,1.082665 -0.59733,1.455998 z"
         id="path1118"
         style="fill:#ffffff" /></g></g></g></g>
</svg>
