<?xml version="1.0" standalone="yes"?><!DOCTYPE svg PUBLIC "-//W3C//DTD SVG 1.1//EN" "http://www.w3.org/Graphics/SVG/1.1/DTD/svg11.dtd"[
<!ENTITY E1 'matrix(1.00 0.00 0.00 1.00 4.00 4.00 ) '><!ENTITY E5 'stroke:none;opacity:1;fill:rgb(255,255,255);'><!ENTITY E7 'matrix(1.00 0.00 0.00 1.00 0.00 0.00 ) '>
]><svg width="70.98745" height="80.47558" id="SvgGdi_output" xmlns="http://www.w3.org/2000/svg" xmlns:xlink="http://www.w3.org/1999/xlink"><rect id="background" height="100.00%" style="fill:rgb(255,255,255);" width="100.00%" y="0.00" x="0.00" /><g style="shape-rendering:auto;" id="root_group"><ellipse id="56" cy="15.00" cx="15.00" transform="&E1;" rx="15.00" ry="15.00" style="stroke:none;opacity:1;fill:rgb(238,192,75);" /><path transform="&E1;" id="57" style="stroke:rgb(169,169,169);fill:none;stroke-linecap:butt;stroke-miterlimit:9;opacity:1;stroke-width:2;stroke-linejoin:miter;" d="M 1.5363 7.8 C 1.99103 6.9385 2.52798 6.1205 3.1403 5.3587 3.7527 4.5967 4.4403 3.8909 5.1968 3.254 5.95315 2.617 6.7782 2.049 7.665299 1.5627 M 0.4537992 19.4997 C 0.1435492 18.4956 -0.05714077 17.4835 -0.1564507 16.4769 -0.2551987 15.4701 -0.2516447 14.4684 -0.1525816 13.4844 -0.05334165 12.5007 0.1414284 11.5347 0.4251484 10.5993 M 7.892348 28.3993 C 7.030958 27.9447 6.212848 27.4077 5.450948 26.7954 4.689008 26.1831 3.983248 25.4954 3.346348 24.739 2.709558 23.9826 2.141548 23.1575 1.655148 22.2704 M 19.49415 29.4993 C 18.48995 29.8096 17.47785 30.0103 16.47125 30.1096 15.46445 30.2084 14.46285 30.2049 13.47895 30.1018 12.49507 30.0028 11.52915 29.8079 10.59365 29.5242 M 28.46365 22.0993 C 28.00892 22.9606 27.472 23.7788 26.85965 24.5407 26.24738 25.3026 25.55945 26.0084 24.80315 26.6453 24.0468 27.2822 23.22175 27.8502 22.33465 28.3365 M 29.54565 10.4995 C 29.85594 11.5037 30.05659 12.5157 30.15594 13.5224 30.25481 14.5292 30.25114 15.531 30.15199 16.5147 30.05279 17.4986 29.85802 18.4646 29.5743 19.4 M 22.10769 1.499998 C 22.96908 1.954698 23.7872 2.491698 24.5491 3.103898 25.31104 3.716298 26.0168 4.404098 26.65369 5.160398 27.29052 5.916898 27.85859 6.741898 28.34499 7.629098 M 10.50499 0.3999977 C 11.50919 0.08969772 12.52109 -0.1109023 13.52779 -0.2103023 14.53469 -0.3090023 15.53619 -0.3055023 16.52009 -0.2103023 17.50401 -0.1111023 18.46999 0.08369771 19.40549 0.3673977 " /><ellipse id="58" cy="9.06" cx="15.01" transform="&E1;" rx="3.50" ry="3.50" style="&E5;" /><ellipse id="59" cy="18.49" cx="9.12" transform="&E1;" rx="3.50" ry="3.50" style="&E5;" /><ellipse id="60" cy="18.46" cx="20.88" transform="&E1;" rx="3.50" ry="3.50" style="&E5;" /><text id="61" transform="&E7;" x="4.00px" y="39.00px" style="stroke:none;clip-path:url(#63_text_clipper);font-family:Microsoft Sans Serif;fill:rgb(0,0,0);font-size:8.25pt;opacity:1;"><tspan dy="8.25pt" id="65">BNO055 9-</tspan></text><text id="67" transform="&E7;" x="4.00px" y="51.45px" style="stroke:none;clip-path:url(#69_text_clipper);font-family:Microsoft Sans Serif;fill:rgb(0,0,0);font-size:8.25pt;opacity:1;"><tspan dy="8.25pt" id="71">Axis IMU &amp; </tspan></text><text id="73" transform="&E7;" x="4.00px" y="63.90px" style="stroke:none;clip-path:url(#75_text_clipper);font-family:Microsoft Sans Serif;fill:rgb(0,0,0);font-size:8.25pt;opacity:1;"><tspan dy="8.25pt" id="77">Commutator</tspan></text></g><defs id="clips_hatches_and_gradients"><clipPath id="63_text_clipper"><rect x="4.00" y="39.00" width="65.99" height="41.48" id="64" /></clipPath><clipPath id="69_text_clipper"><rect x="4.00" y="51.45" width="65.99" height="41.48" id="70" /></clipPath><clipPath id="75_text_clipper"><rect x="4.00" y="63.90" width="65.99" height="41.48" id="76" /></clipPath></defs></svg>